<?xml version="1.0" standalone="no"?>
<!DOCTYPE svg PUBLIC "-//W3C//DTD SVG 1.1//EN" "http://www.w3.org/Graphics/SVG/1.1/DTD/svg11.dtd" >
<svg xmlns="http://www.w3.org/2000/svg" xmlns:xlink="http://www.w3.org/1999/xlink" version="1.1">
<metadata>
Created by FontForge 20170731 at Fri Jan  6 22:11:04 2012
 By Aleksey,,,
Copyright 2012 Adobe Systems Incorporated. All rights reserved.
</metadata>
<defs>
<font id="QuickArgani" horiz-adv-x="904" >
  <font-face 
    font-family="Quick Argani"
    font-weight="400"
    font-stretch="normal"
    units-per-em="1000"
    panose-1="2 0 5 7 0 0 0 2 0 4"
    ascent="800"
    descent="-200"
    x-height="959"
    cap-height="971"
    bbox="-118 -464 1396 990"
    underline-thickness="50"
    underline-position="-200"
    unicode-range="U+0020-007A"
  />
<missing-glyph horiz-adv-x="1000" 
 />
    <glyph glyph-name=".notdef" horiz-adv-x="1000" 
 />
    <glyph glyph-name=".null" horiz-adv-x="0" 
 />
    <glyph glyph-name="nonmarkingreturn" horiz-adv-x="333" 
 />
    <glyph glyph-name="space" unicode=" " horiz-adv-x="478" 
 />
    <glyph glyph-name="exclam" unicode="!" horiz-adv-x="500" 
d="M81 248l193 742h212l-193 -743q-140 0 -212 1zM168 164v4q52 -6 84.5 -41.5t27.5 -79.5q-6 -43 -46.5 -69.5t-92.5 -21.5q-52 6 -84.5 40.5t-27.5 78.5q6 44 46.5 70t92.5 19z" />
    <glyph glyph-name="comma" unicode="," horiz-adv-x="413" 
d="M179 200v2q25 -3 43 -11.5t28 -18t14.5 -27t6 -28t-2 -32t-5.5 -30t-7 -29.5l-30 -115l-69 -1l30 113q-15 -1 -30 0q-44 6 -71 35.5t-23 66.5q5 37 39 58.5t77 16.5z" />
    <glyph glyph-name="period" unicode="." horiz-adv-x="443" 
d="M170 201q43 -5 71 -35t23 -66q-4 -37 -38 -59t-78 -17q-44 6 -71 35.5t-23 66.5t38 58.5t78 16.5z" />
    <glyph glyph-name="zero" unicode="0" horiz-adv-x="867" 
d="M563 957l1 1q88 -23 149.5 -80.5t89.5 -135t27 -171t-32 -190.5q-64 -200 -212.5 -305t-323.5 -60q-87 23 -148.5 80t-90 134.5t-28 171t31.5 190.5q42 131 121.5 224.5t188.5 132.5t226 8zM490 724q-84 23 -149 -30t-92 -163q-62 -251 87 -292q78 -21 143.5 44t95.5 158
q13 41 16.5 84.5t-3.5 84.5t-32 72t-66 42z" />
    <glyph glyph-name="one" unicode="1" horiz-adv-x="497" 
d="M251 970l246 -1l-251 -967q-163 0 -245 1q234 904 250 967z" />
    <glyph glyph-name="two" unicode="2" horiz-adv-x="895" 
d="M518 707v3h-182h-203l68 262q43 0 116 -0.5t95 -0.5q85 0 159 -15t141 -48.5t106 -96t39 -148.5q0 -40 -9.5 -79.5t-32.5 -79t-57 -69.5t-88 -48.5t-120 -18.5h-151q-24 0 -42 -8t-28.5 -18t-19 -30t-12 -33.5t-9 -39.5t-8.5 -37q89 -1 537 -1l-53 -201q-127 -1 -382 -2
t-382 -2l46 179q37 140 65 201q94 203 303 203l113 1q64 0 90 32t-2 63.5t-97 31.5z" />
    <glyph glyph-name="three" unicode="3" horiz-adv-x="860" 
d="M360 261h1q46 0 81 12t46 30t6 36t-38.5 32t-88.5 17q-1 0 -7 -0.5t-10 -0.5l52 199q49 -2 86 0q79 0 113 31t2 62.5t-111 31.5h-190h-120l68 259q50 -1 206 -1q53 0 102 -8.5t97.5 -30.5t83.5 -55.5t57 -87.5t22 -123q0 -64 -47 -128.5t-124 -91.5q42 -33 60.5 -91
t10.5 -115q-18 -129 -103.5 -182t-234.5 -53q-30 0 -181.5 -1t-201.5 -1l66 260h143h154z" />
    <glyph glyph-name="four" unicode="4" horiz-adv-x="860" 
d="M-3 365l157 607l246 -1l-95 -366l231 2l95 365l246 -1l-252 -971q-163 0 -246 1l95 366z" />
    <glyph glyph-name="five" unicode="5" horiz-adv-x="917" 
d="M437 264q95 0 128 41q24 31 -8 57q-33 28 -110 28l-53 1q-70 0 -122.5 23t-81 60t-43 84.5t-14.5 95t12 92.5l57 225q561 0 729 -2l-68 -245h-497q-13 -50 5 -91t76 -41l62 -1q66 1 119.5 -16.5t87.5 -45.5t57.5 -65t33 -75.5t9.5 -77.5q0 -86 -39 -148t-105.5 -95
t-140 -48t-157.5 -15q-33 0 -180 -1.5t-192 -0.5l68 261h228h139z" />
    <glyph glyph-name="six" unicode="6" horiz-adv-x="789" 
d="M410 632l1 1q172 -21 259.5 -124.5t64.5 -238.5q-22 -133 -140.5 -209.5t-290.5 -56.5q-112 13 -187.5 90.5t-101.5 182.5t-8 217q14 81 35 147.5t57.5 129t85.5 105t121 68t161 25.5q128 0 159 -3l34 -232h-106.5t-104.5 1q-52 1 -94.5 -27t-68.5 -75q61 6 124 -1z
M412 422q-71 9 -111 -12.5t-48 -67.5q-9 -54 21 -82t103 -38q67 -9 108 18t48 65t-23.5 73t-97.5 44z" />
    <glyph glyph-name="seven" unicode="7" horiz-adv-x="757" 
d="M2 736l62 239q137 -1 359 -1.5t298 -0.5l-252 -971q-164 0 -247 1l190 730z" />
    <glyph glyph-name="eight" unicode="8" horiz-adv-x="845" 
d="M246 538v3q-123 67 -123 173q0 65 35 117.5t91 82.5t118 45.5t123 15.5q59 0 114.5 -12.5t105.5 -38.5t80.5 -73.5t30.5 -110.5q0 -143 -197 -213q142 -73 142 -205q0 -78 -38.5 -141.5t-100.5 -102.5t-134.5 -60t-146.5 -21q-64 0 -123 15t-109 45.5t-80.5 82.5
t-30.5 119q0 104 69 177t174 102zM360 703q0 -36 28 -55t69 -19q46 0 85 26.5t39 66.5q0 36 -28.5 56.5t-69.5 20.5q-48 0 -85.5 -27t-37.5 -69zM245 265q0 -43 33.5 -66.5t84.5 -23.5q54 0 96.5 25.5t61 60.5t13.5 73.5t-37 61.5q-32 25 -86 25q-73 0 -119.5 -46
t-46.5 -110z" />
    <glyph glyph-name="nine" unicode="9" horiz-adv-x="810" 
d="M327 339h1q-172 21 -260 124.5t-66 238.5q23 133 141.5 209.5t290.5 56.5q177 -22 261.5 -123.5t56.5 -263.5q-14 -83 -37.5 -159t-64 -154.5t-91.5 -136t-126 -93.5t-163 -36q-128 0 -159 3l-35 232h106.5t104.5 -1q52 -1 95 27t68 75q-60 -6 -123 1zM357 535
q86 -12 135 14.5t58 82.5q10 65 -26 99.5t-125 46.5q-81 10 -130.5 -22.5t-58.5 -78.5q-8 -46 29 -88.5t118 -53.5z" />
    <glyph glyph-name="colon" unicode=":" horiz-adv-x="443" 
d="M246 766q52 -7 84.5 -42.5t26.5 -78.5q-5 -43 -45 -69t-92 -20q-52 7 -84.5 42t-27.5 78q6 44 46 70t92 20zM184 436q52 -7 84.5 -42t26.5 -78q-5 -43 -45 -69.5t-92 -20.5q-52 7 -84.5 42.5t-26.5 78.5q5 44 45 70t92 19z" />
    <glyph glyph-name="semicolon" unicode=";" horiz-adv-x="443" 
d="M252 757q52 -6 84.5 -41.5t26.5 -78.5q-5 -44 -45 -70t-92 -19q-52 6 -84.5 41.5t-26.5 78.5q5 44 45 70t92 19zM188 422q30 -4 51.5 -14t33.5 -21.5t17.5 -31.5t7 -33.5t-2.5 -38t-7 -35.5t-9 -35l-35 -138h-82l35 137q-17 -2 -35 0q-52 7 -84 42t-27 79q5 43 45.5 69.5
t91.5 19.5z" />
    <glyph glyph-name="question" unicode="?" horiz-adv-x="773" 
d="M461 760h-155h-173l58 224q132 -2 180 -2q72 0 135 -12.5t120 -41t90.5 -82t33.5 -126.5q0 -43 -14 -85t-43 -80.5t-82 -62t-123 -23.5h-128q-24 0 -42.5 -12t-29 -29t-19 -44.5t-11.5 -47.5t-7.5 -50.5t-6.5 -42.5h-201l16 64q33 128 60 183q81 162 254 162l96 1
q63 0 81 35q16 30 -15 53q-26 19 -74 19zM139 161l1 4q51 -6 83.5 -41.5t27.5 -78.5t-45.5 -69.5t-92.5 -21.5q-51 6 -83.5 40t-28.5 78q5 44 45.5 70t92.5 19z" />
    <glyph glyph-name="A" unicode="A" horiz-adv-x="908" 
d="M180 -4l-277 4q99 187 516 971h163l233 -973q-47 0 -139 -1t-138 -1l-111 463z" />
    <glyph glyph-name="B" unicode="B" horiz-adv-x="882" 
d="M245 967l1 1l242 -1q166 -1 258.5 -59.5t92.5 -179.5q0 -86 -55 -151.5t-138 -81.5q80 -25 130 -92t50 -150q0 -104 -74.5 -178.5t-178.5 -74.5h-577q75 293 148 574.5t101 392.5zM285 202h76q186 0 203 87q8 43 -10 73t-54.5 44.5t-74 20.5t-80.5 6zM519 779h-78
l-38 -144h103q59 5 72 54q9 31 -9.5 60t-49.5 30z" />
    <glyph glyph-name="C" unicode="C" horiz-adv-x="800" 
d="M653 270l-69 -270q-57 1 -169 1q-70 0 -134 26t-112.5 70.5t-87.5 104t-57.5 126t-23 137t14.5 137.5q21 79 57 139.5t81.5 99t101 65.5t116 38.5t126.5 18.5t131.5 5t132.5 -2q48 -1 72 -1l-69 -267h-279q-204 0 -246 -162q-16 -59 2 -120.5t65.5 -103.5t108.5 -42h238z
" />
    <glyph glyph-name="D" unicode="D" horiz-adv-x="966" 
d="M422 700l-111 -428h135q42 2 75.5 9.5t65.5 25t55.5 49.5t35.5 78q16 59 -2 120.5t-65.5 103.5t-108.5 42h-80zM194 1l1 1q-66 0 -198 2q45 178 248 967q88 0 256 -2q70 0 134.5 -26t113 -70.5t87.5 -103.5t57.5 -126t23 -137.5t-15.5 -137.5q-20 -76 -55 -134.5
t-74.5 -97t-97.5 -65.5t-107 -41t-121.5 -21t-123 -8t-128.5 0z" />
    <glyph glyph-name="E" unicode="E" horiz-adv-x="901" 
d="M249 968h649l-61 -236l-403 -1l-31 -120h274l-60 -238h-276l-35 -134l403 1l-61 -238l13 -1q-551 0 -661 1q83 322 155 602t94 364z" />
    <glyph glyph-name="F" unicode="F" horiz-adv-x="874" 
d="M252 971h204.5h241.5h205l-62 -237l-404 -1l-31 -120h275l-60 -239h-277l-99 -374q-162 0 -244 1q84 324 156.5 605.5t94.5 364.5z" />
    <glyph glyph-name="G" unicode="G" horiz-adv-x="875" 
d="M808 421l-108 -420h-283q-98 1 -182.5 53.5t-137 134t-77.5 180.5t-13 191q0 3 3.5 22.5t4.5 21.5q21 79 57.5 139.5t82 99t101 66t116 39t126.5 18.5t132.5 5t133.5 -2h25t22.5 -0.5t24.5 -0.5l-70 -268q-293 0 -293 -1q-94 -4 -152 -40t-81 -121q-25 -92 29.5 -179
t147.5 -88h106l39 151z" />
    <glyph glyph-name="H" unicode="H" horiz-adv-x="1025" 
d="M253 971l247 -1l-95 -367l288 3l94 365l247 -1l-252 -970h-246l94 366l-288 -2l-94 -364h-247q82 317 155 597t97 374z" />
    <glyph glyph-name="I" unicode="I" horiz-adv-x="500" 
d="M253 967v4l247 -1l-252 -973q-164 -2 -248 -2q183 699 253 972z" />
    <glyph glyph-name="J" unicode="J" horiz-adv-x="792" 
d="M67 0h1l-70 273h238q58 0 103.5 37.5t66.5 94.5l147 566l247 -1q-11 -41 -49 -208.5t-72.5 -290.5t-70.5 -203q-53 -118 -150.5 -192t-220.5 -75q-113 0 -170 -1z" />
    <glyph glyph-name="K" unicode="K" horiz-adv-x="1071" 
d="M251 971l247 -1l-92 -353l13 3l355 350h341l-490 -482l278 -488h-275l-253 444l-11 7l-118 -451q-163 0 -246 1q66 255 113.5 438t84 324.5t53.5 207.5z" />
    <glyph glyph-name="L" unicode="L" horiz-adv-x="888" 
d="M253 974l246 -1l-188 -729l502 -4q-21 -80 -63 -238l-502 2v-1q-163 0 -246 1q2 9 251 970z" />
    <glyph glyph-name="M" unicode="M" horiz-adv-x="1381" 
d="M-2 2l250 968h315l119 -449l333 449q60 0 180 -0.5t179 -0.5l-251 -968q-164 0 -246 1l164 631q-90 -105 -238.5 -309.5t-233.5 -304.5l-104 388q-4 13 -26 97t-33 127q-31 -121 -88.5 -342.5t-74.5 -287.5h-192q-9 0 -27 0.5t-26 0.5z" />
    <glyph glyph-name="N" unicode="N" horiz-adv-x="1069" 
d="M-2 4l250 966h272q102 -422 128 -528l135 528l278 -1l-251 -966q-179 0 -270 1l-148 574l-149 -575q-163 0 -245 1z" />
    <glyph glyph-name="O" unicode="O" horiz-adv-x="890" 
d="M566 958l1 1q88 -24 149.5 -81t89.5 -134.5t27 -171t-32 -190.5q-64 -201 -212.5 -306.5t-323.5 -59.5q-88 23 -149 80.5t-89.5 135t-28 170.5t31.5 191q42 131 121.5 224.5t188.5 132.5t226 8zM493 725q-84 23 -149 -30t-92 -164q-62 -251 87 -292q78 -21 143.5 44
t95.5 158q13 42 16.5 85t-3.5 84t-32 72.5t-66 42.5z" />
    <glyph glyph-name="P" unicode="P" horiz-adv-x="898" 
d="M246 970h1q53 0 159.5 0.5t160.5 0.5q136 0 233 -89.5t97 -215.5q0 -127 -96.5 -216t-233.5 -89h-232l-93 -359q-163 0 -245 1q196 763 249 967zM386 560h191q49 0 84 32t35 77q0 46 -35 78t-84 32q-23 0 -68 -0.5t-67 -0.5z" />
    <glyph glyph-name="Q" unicode="Q" horiz-adv-x="930" 
d="M581 947l1 10q89 -24 151.5 -82t91 -136.5t28 -174t-32.5 -194.5q-49 -151 -148 -252.5t-224 -124.5q7 -84 67 -131q33 -24 97.5 -72.5t97.5 -73.5l-220 -180q-63 47 -98.5 75t-71.5 64t-50.5 64.5t-25 68.5t-8 84t14.5 104q-82 27 -139.5 86t-83.5 136.5t-24.5 169.5
t31.5 188q43 133 124 228t192 135t230 8zM507 710q-85 24 -151.5 -30.5t-94.5 -166.5q-62 -255 89 -297q79 -21 146 45.5t97 160.5q19 57 20 115t-25.5 108t-80.5 65z" />
    <glyph glyph-name="R" unicode="R" horiz-adv-x="944" 
d="M246 971h1q0 -1 160 -1l160 1q137 0 234 -89t97 -216q0 -102 -65.5 -182.5t-168.5 -109.5l91 -371q-78 -1 -232 -1l-88 359h-100l-93 -359q-163 0 -245 1q198 771 249 968zM386 560h192q49 0 83.5 32t34.5 77q0 46 -34.5 78t-83.5 32h-135z" />
    <glyph glyph-name="S" unicode="S" horiz-adv-x="930" 
d="M433 264h1q95 0 128 41q24 31 -8 57q-35 28 -111 28l-53 1q-38 0 -81.5 18t-82.5 50t-65 83t-26 109q0 83 27 143.5t68.5 94.5t105.5 53.5t121.5 25t133.5 5.5q172 0 337 -3l-68 -263h-414q-60 0 -86 -28.5t-2 -57t85 -28.5l62 -1q82 1 144.5 -25t96.5 -68.5t50.5 -90
t16.5 -97.5q0 -69 -26.5 -123.5t-69 -88t-101.5 -56t-119.5 -31t-126.5 -8.5q-48 0 -191 -1t-181 -1l66 262h229h140z" />
    <glyph glyph-name="T" unicode="T" 
d="M19 721l63 250q143 0 426.5 0.5t426.5 1.5q-16 -68 -64 -251h-274l-186 -722q-164 0 -248 1l186 721z" />
    <glyph glyph-name="U" unicode="U" 
d="M263 25l1 1q-141 38 -214.5 156.5t-41.5 266.5l137 523l245 -1l-143 -552q-17 -66 4 -113t88 -66q165 -45 220 167l146 565l246 -1l-169 -650q-108 -402 -519 -296z" />
    <glyph glyph-name="V" unicode="V" horiz-adv-x="839" 
d="M632 970l278 -1q-180 -338 -516 -966h-162l-232 969h133.5t133.5 -1l117 -473z" />
    <glyph glyph-name="W" unicode="W" horiz-adv-x="1340" 
d="M1119 969l277 -1l-515 -964h-162l-100 416l-222 -416h-162l-231 967h266l118 -491l300 489l156 -488z" />
    <glyph glyph-name="X" unicode="X" horiz-adv-x="1078" 
d="M735 972h317l-441 -506l185 -466h-257q-20 50 -56.5 143t-47.5 121l-229 -264h-317q66 76 217 249.5t230 263.5q-158 399 -182 459h257l101 -256q220 253 223 256z" />
    <glyph glyph-name="Y" unicode="Y" horiz-adv-x="944" 
d="M139 3l102 393l-214 578h281l118 -315l247 315h310l-503 -609l-94 -362h-247z" />
    <glyph glyph-name="Z" unicode="Z" horiz-adv-x="1054" 
d="M184 734l62 237q146 -1 402.5 -2t388.5 -1l-54 -223l-584 -506q38 0 219.5 -0.5t290.5 -0.5q-12 -47 -34 -133t-27 -104l-851 3l59 236l587 493z" />
    <glyph glyph-name="a" unicode="a" horiz-adv-x="914" 
d="M173 -4l-277 4q99 187 516 971h163l233 -973q-46 0 -138 -1t-139 -1l-111 463z" />
    <glyph glyph-name="b" unicode="b" horiz-adv-x="882" 
d="M245 967l1 1l242 -1q166 -1 258.5 -59.5t92.5 -179.5q0 -86 -55 -151.5t-138 -81.5q80 -25 130 -92t50 -150q0 -104 -74.5 -178.5t-178.5 -74.5h-577q75 293 148 574.5t101 392.5zM285 202h76q186 0 203 87q8 43 -10 73t-54.5 44.5t-74 20.5t-80.5 6zM519 779h-78
l-38 -144h103q59 5 72 54q9 31 -9.5 60t-49.5 30z" />
    <glyph glyph-name="c" unicode="c" horiz-adv-x="797" 
d="M653 270l-69 -270q-57 1 -169 1q-70 0 -134 26t-112.5 70.5t-87.5 104t-57.5 126t-23 137t14.5 137.5q21 79 57 139.5t81.5 99t101 65.5t116 38.5t126.5 18.5t131.5 5t132.5 -2q48 -1 72 -1l-69 -267h-279q-204 0 -246 -162q-16 -59 2 -120.5t65.5 -103.5t108.5 -42h238z
" />
    <glyph glyph-name="d" unicode="d" horiz-adv-x="966" 
d="M422 700l-111 -428h135q42 2 75.5 9.5t65.5 25t55.5 49.5t35.5 78q16 59 -2 120.5t-65.5 103.5t-108.5 42h-80zM194 1l1 1q-66 0 -198 2q45 178 248 967q88 0 256 -2q70 0 134.5 -26t113 -70.5t87.5 -103.5t57.5 -126t23 -137.5t-15.5 -137.5q-20 -76 -55 -134.5
t-74.5 -97t-97.5 -65.5t-107 -41t-121.5 -21t-123 -8t-128.5 0z" />
    <glyph glyph-name="e" unicode="e" horiz-adv-x="884" 
d="M249 968h649l-61 -236l-403 -1l-31 -120h274l-60 -238h-276l-35 -134l403 1l-61 -238l13 -1q-551 0 -661 1q83 322 155 602t94 364z" />
    <glyph glyph-name="f" unicode="f" horiz-adv-x="876" 
d="M252 971h204.5h241.5h205l-62 -237l-404 -1l-31 -120h275l-60 -239h-277l-99 -374q-162 0 -244 1q84 324 156.5 605.5t94.5 364.5z" />
    <glyph glyph-name="g" unicode="g" horiz-adv-x="875" 
d="M808 421l-108 -420h-283q-98 1 -182.5 53.5t-137 134t-77.5 180.5t-13 191q0 3 3.5 22.5t4.5 21.5q21 79 57.5 139.5t82 99t101 66t116 39t126.5 18.5t132.5 5t133.5 -2h25t22.5 -0.5t24.5 -0.5l-70 -268q-293 0 -293 -1q-94 -4 -152 -40t-81 -121q-25 -92 29.5 -179
t147.5 -88h106l39 151z" />
    <glyph glyph-name="h" unicode="h" horiz-adv-x="1025" 
d="M253 971l247 -1l-95 -367l288 3l94 365l247 -1l-252 -970h-246l94 366l-288 -2l-94 -364h-247q82 317 155 597t97 374z" />
    <glyph glyph-name="i" unicode="i" horiz-adv-x="500" 
d="M253 967v4l247 -1l-252 -973q-164 -2 -248 -2q183 699 253 972z" />
    <glyph glyph-name="j" unicode="j" horiz-adv-x="792" 
d="M67 0h1l-70 273h238q58 0 103.5 37.5t66.5 94.5l147 566l247 -1q-11 -41 -49 -208.5t-72.5 -290.5t-70.5 -203q-53 -118 -150.5 -192t-220.5 -75q-113 0 -170 -1z" />
    <glyph glyph-name="k" unicode="k" horiz-adv-x="1061" 
d="M251 971l247 -1l-92 -353l13 3l355 350h341l-490 -482l278 -488h-275l-253 444l-11 7l-118 -451q-163 0 -246 1q66 255 113.5 438t84 324.5t53.5 207.5z" />
    <glyph glyph-name="l" unicode="l" horiz-adv-x="883" 
d="M253 974l246 -1l-188 -729l502 -4q-21 -80 -63 -238l-502 2v-1q-163 0 -246 1q2 9 251 970z" />
    <glyph glyph-name="m" unicode="m" horiz-adv-x="1376" 
d="M-2 2l250 968h315l119 -449l333 449q60 0 180 -0.5t179 -0.5l-251 -968q-164 0 -246 1l164 631q-90 -105 -238.5 -309.5t-233.5 -304.5l-104 388q-4 13 -26 97t-33 127q-31 -121 -88.5 -342.5t-74.5 -287.5h-192q-9 0 -27 0.5t-26 0.5z" />
    <glyph glyph-name="n" unicode="n" horiz-adv-x="1076" 
d="M-2 4l250 966h272q102 -422 128 -528l135 528l278 -1l-251 -966q-179 0 -270 1l-148 574l-149 -575q-163 0 -245 1z" />
    <glyph glyph-name="o" unicode="o" horiz-adv-x="884" 
d="M566 958l1 1q88 -24 149.5 -81t89.5 -134.5t27 -171t-32 -190.5q-64 -201 -212.5 -306.5t-323.5 -59.5q-88 23 -149 80.5t-89.5 135t-28 170.5t31.5 191q42 131 121.5 224.5t188.5 132.5t226 8zM493 725q-84 23 -149 -30t-92 -164q-62 -251 87 -292q78 -21 143.5 44
t95.5 158q13 42 16.5 85t-3.5 84t-32 72.5t-66 42.5z" />
    <glyph glyph-name="p" unicode="p" horiz-adv-x="901" 
d="M246 970h1q53 0 159.5 0.5t160.5 0.5q136 0 233 -89.5t97 -215.5q0 -127 -96.5 -216t-233.5 -89h-232l-93 -359q-163 0 -245 1q196 763 249 967zM386 560h191q49 0 84 32t35 77q0 46 -35 78t-84 32q-23 0 -68 -0.5t-67 -0.5z" />
    <glyph glyph-name="q" unicode="q" horiz-adv-x="930" 
d="M581 947l1 10q89 -24 151.5 -82t91 -136.5t28 -174t-32.5 -194.5q-49 -151 -148 -252.5t-224 -124.5q7 -84 67 -131q33 -24 97.5 -72.5t97.5 -73.5l-220 -180q-63 47 -98.5 75t-71.5 64t-50.5 64.5t-25 68.5t-8 84t14.5 104q-82 27 -139.5 86t-83.5 136.5t-24.5 169.5
t31.5 188q43 133 124 228t192 135t230 8zM507 710q-85 24 -151.5 -30.5t-94.5 -166.5q-62 -255 89 -297q79 -21 146 45.5t97 160.5q19 57 20 115t-25.5 108t-80.5 65z" />
    <glyph glyph-name="r" unicode="r" horiz-adv-x="944" 
d="M246 971h1q0 -1 160 -1l160 1q137 0 234 -89t97 -216q0 -102 -65.5 -182.5t-168.5 -109.5l91 -371q-78 -1 -232 -1l-88 359h-100l-93 -359q-163 0 -245 1q198 771 249 968zM386 560h192q49 0 83.5 32t34.5 77q0 46 -34.5 78t-83.5 32h-135z" />
    <glyph glyph-name="s" unicode="s" horiz-adv-x="926" 
d="M433 264h1q95 0 128 41q24 31 -8 57q-35 28 -111 28l-53 1q-38 0 -81.5 18t-82.5 50t-65 83t-26 109q0 83 27 143.5t68.5 94.5t105.5 53.5t121.5 25t133.5 5.5q172 0 337 -3l-68 -263h-414q-60 0 -86 -28.5t-2 -57t85 -28.5l62 -1q82 1 144.5 -25t96.5 -68.5t50.5 -90
t16.5 -97.5q0 -69 -26.5 -123.5t-69 -88t-101.5 -56t-119.5 -31t-126.5 -8.5q-48 0 -191 -1t-181 -1l66 262h229h140z" />
    <glyph glyph-name="t" unicode="t" 
d="M15 721l63 250q143 0 426.5 0.5t426.5 1.5q-16 -68 -64 -251h-274l-186 -722q-164 0 -248 1l186 721z" />
    <glyph glyph-name="u" unicode="u" 
d="M263 25l1 1q-141 38 -214.5 156.5t-41.5 266.5l137 523l245 -1l-143 -552q-17 -66 4 -113t88 -66q165 -45 220 167l146 565l246 -1l-169 -650q-108 -402 -519 -296z" />
    <glyph glyph-name="v" unicode="v" horiz-adv-x="849" 
d="M632 970l278 -1q-180 -338 -516 -966h-162l-232 969h133.5t133.5 -1l117 -473z" />
    <glyph glyph-name="w" unicode="w" horiz-adv-x="1338" 
d="M1119 969l277 -1l-515 -964h-162l-100 416l-222 -416h-162l-231 967h266l118 -491l300 489l156 -488z" />
    <glyph glyph-name="x" unicode="x" horiz-adv-x="1057" 
d="M728 972h317l-441 -506l185 -466h-257q-20 50 -56.5 143t-47.5 121l-229 -264h-317q66 76 217 249.5t230 263.5q-158 399 -182 459h257l101 -256q220 253 223 256z" />
    <glyph glyph-name="y" unicode="y" horiz-adv-x="952" 
d="M153 3l102 393l-214 578h281l118 -315l247 315h310l-503 -609l-94 -362h-247z" />
    <glyph glyph-name="z" unicode="z" horiz-adv-x="1062" 
d="M184 734l62 237q146 -1 402.5 -2t388.5 -1l-54 -223l-584 -506q38 0 219.5 -0.5t290.5 -0.5q-12 -47 -34 -133t-27 -104l-851 3l59 236l587 493z" />
  </font>
</defs>
</svg>
